<svg width="76" height="21" viewBox="0 0 76 21" fill="none" xmlns="http://www.w3.org/2000/svg">
<path d="M0 13.4693V0.587708H2.31837V11.1836H8.76735V13.4693H0Z" fill="white"/>
<path d="M9.87756 1.43674C9.87756 0.620409 10.498 0 11.298 0C12.098 0 12.6857 0.604082 12.6857 1.43674C12.6857 2.26939 12.098 2.85714 11.298 2.85714C10.4816 2.87347 9.87756 2.28571 9.87756 1.43674ZM12.3755 13.4694H10.1551V4.01633H12.3755V13.4694Z" fill="white"/>
<path d="M14.5796 13.4694V4.01632H16.751V5.33877C17.2408 4.3755 18.3184 3.77142 19.6571 3.77142C20.6531 3.77142 21.5184 4.11428 22.2204 4.79999C22.9224 5.48571 23.2653 6.43265 23.2653 7.70612V13.4694H21.0449V8.32652C21.0449 6.74285 20.2449 5.82856 19.0204 5.82856C17.7143 5.82856 16.7837 6.87346 16.7837 8.35918V13.4694H14.5796Z" fill="white"/>
<path d="M31.445 13.4694L28.2776 9.33878L27.6083 9.95919V13.4694H25.4042V0.228577H27.6083V7.3796L31.1511 4.00001H33.9593L29.8123 7.90204L34.1878 13.4694H31.445Z" fill="white"/>
<path d="M36.3754 11.8204C35.1346 10.5796 34.5305 8.9959 34.5305 7.06937C34.5305 5.12651 35.1509 3.51018 36.4081 2.26936C37.6815 0.995895 39.2162 0.375488 41.0122 0.375488C43.2652 0.375488 45.306 1.45304 46.4162 3.06937L44.8326 4.62039C43.8203 3.31426 42.5795 2.6612 41.1101 2.6612C39.9346 2.6612 38.9387 3.08569 38.1224 3.91834C37.3224 4.751 36.9142 5.7959 36.9142 7.06937C36.9142 8.31018 37.306 9.33875 38.106 10.1551C38.906 10.9714 39.9019 11.3796 41.0938 11.3796C42.6448 11.3796 43.9019 10.7428 44.8815 9.42038L46.4979 10.9224C45.3224 12.5388 43.2979 13.6653 40.9795 13.6653C39.1509 13.649 37.6162 13.0449 36.3754 11.8204Z" fill="white"/>
<path d="M47.9673 13.4694V0.228577H50.1224V5.22449C50.6448 4.37551 51.7387 3.75511 53.0448 3.75511C54.0408 3.75511 54.8734 4.09796 55.5754 4.78368C56.2775 5.46939 56.6203 6.41633 56.6203 7.6898V13.4531H54.4163V8.29388C54.4163 6.71021 53.6163 5.81225 52.3918 5.81225C51.0857 5.81225 50.1714 6.84082 50.1714 8.32654V13.4531H47.9673V13.4694Z" fill="white"/>
<path d="M65.8286 3.99996H67.9347V13.453H65.8286V12.2938C65.0286 13.2245 64.0326 13.6816 62.8245 13.6816C61.502 13.6816 60.4082 13.2081 59.5429 12.2449C58.6775 11.2816 58.2531 10.0898 58.2531 8.66935C58.2531 7.26527 58.6775 6.07343 59.5429 5.14282C60.4082 4.21221 61.5184 3.75507 62.8245 3.75507C64 3.75507 64.9959 4.22853 65.8286 5.17547V3.99996ZM65.1265 6.67751C64.6204 6.12241 63.9673 5.84486 63.1673 5.84486C62.3673 5.84486 61.7306 6.12241 61.2082 6.67751C60.7184 7.23262 60.4571 7.91833 60.4571 8.71833C60.4571 9.53466 60.7184 10.2204 61.2082 10.7755C61.7143 11.3306 62.3673 11.6081 63.1673 11.6081C63.9673 11.6081 64.6041 11.3306 65.1265 10.7755C65.6326 10.2204 65.8939 9.53466 65.8939 8.71833C65.8939 7.91833 65.6326 7.24894 65.1265 6.67751Z" fill="white"/>
<path d="M70.2041 13.4694V4.01632H72.3266V5.32244C72.8817 4.29387 73.747 3.77142 74.8898 3.77142C75.2817 3.77142 75.6572 3.83673 76 3.96734L75.8204 6.13877C75.4449 6.02448 75.0857 5.94285 74.7592 5.94285C73.3878 5.94285 72.4408 6.88979 72.4408 8.84897V13.4694H70.2041Z" fill="white"/>
<rect x="0.081665" y="16.6531" width="72.8163" height="3.42857" fill="url(#paint0_linear_5_983)"/>
<defs>
<linearGradient id="paint0_linear_5_983" x1="0.081665" y1="18.3674" x2="72.898" y2="18.3674" gradientUnits="userSpaceOnUse">
<stop stop-color="#EC008C"/>
<stop offset="1" stop-color="#FC6767"/>
</linearGradient>
</defs>
</svg>
