<svg width="6" height="6" viewBox="0 0 6 6" fill="none" xmlns="http://www.w3.org/2000/svg">
<path fill-rule="evenodd" clip-rule="evenodd" d="M2.11614 3.1768C2.21377 3.07917 2.21377 2.92087 2.11614 2.82324L0.701923 1.40903C0.604292 1.3114 0.604292 1.15311 0.701923 1.05548L1.05548 0.701923C1.15311 0.604292 1.3114 0.604292 1.40903 0.701923L2.82324 2.11614C2.92087 2.21377 3.07917 2.21377 3.1768 2.11614L4.59101 0.701923C4.68864 0.604292 4.84693 0.604292 4.94456 0.701923L5.29812 1.05548C5.39575 1.15311 5.39575 1.3114 5.29812 1.40903L3.8839 2.82324C3.78627 2.92087 3.78627 3.07917 3.8839 3.1768L5.29812 4.59101C5.39575 4.68864 5.39575 4.84693 5.29812 4.94456L4.94456 5.29812C4.84693 5.39575 4.68864 5.39575 4.59101 5.29812L3.1768 3.8839C3.07917 3.78627 2.92087 3.78627 2.82324 3.8839L1.40903 5.29812C1.3114 5.39575 1.15311 5.39575 1.05548 5.29812L0.701923 4.94456C0.604292 4.84693 0.604292 4.68864 0.701923 4.59101L2.11614 3.1768Z" fill="black"/>
</svg>
