<svg width="100" height="100" viewBox="0 0 100 100" fill="none" xmlns="http://www.w3.org/2000/svg">
<path d="M40 57.8947C40 55.103 41.0536 52.4256 42.9289 50.4515C44.8043 48.4774 47.3478 47.3684 50 47.3684C52.6522 47.3684 55.1957 48.4774 57.0711 50.4515C58.9464 52.4256 60 55.103 60 57.8947V89.4737C60 92.2654 58.9464 94.9429 57.0711 96.9169C55.1957 98.891 52.6522 100 50 100C47.3478 100 44.8043 98.891 42.9289 96.9169C41.0536 94.9429 40 92.2654 40 89.4737V57.8947ZM50 0C46.0218 0 42.2064 1.66353 39.3934 4.62463C36.5804 7.58573 35 11.6018 35 15.7895C35 19.9771 36.5804 23.9932 39.3934 26.9543C42.2064 29.9154 46.0218 31.5789 50 31.5789C53.9782 31.5789 57.7936 29.9154 60.6066 26.9543C63.4197 23.9932 65 19.9771 65 15.7895C65 11.6018 63.4197 7.58573 60.6066 4.62463C57.7936 1.66353 53.9782 0 50 0Z" fill="white"/>
</svg>
