<svg width="22" height="22" viewBox="0 0 22 22" fill="none" xmlns="http://www.w3.org/2000/svg">
<circle cx="11" cy="11" r="11" fill="#F36F45"/>
<path d="M8.26316 6.5003V15.5006C8.26345 15.5917 8.28858 15.681 8.33585 15.7589C8.38313 15.8368 8.45075 15.9003 8.53145 15.9427C8.61214 15.985 8.70286 16.0045 8.79382 15.9991C8.88478 15.9937 8.97256 15.9636 9.04769 15.9121L15.5479 11.4119C15.8174 11.2254 15.8174 10.7764 15.5479 10.5894L9.04769 6.08929C8.97271 6.0372 8.8849 6.00665 8.79378 6.00097C8.70267 5.99528 8.61173 6.01468 8.53087 6.05705C8.45 6.09941 8.38229 6.16313 8.33509 6.24128C8.2879 6.31942 8.26302 6.40901 8.26316 6.5003Z" fill="white"/>
</svg>
