<svg width="10" height="10" viewBox="0 0 10 10" fill="none" xmlns="http://www.w3.org/2000/svg">
<path d="M3.58863 0.688843H1.49252C1.1432 0.688843 0.860016 0.972023 0.860016 1.32134V8.6119C0.860016 8.96122 1.1432 9.2444 1.49252 9.2444H3.58863C3.93795 9.2444 4.22113 8.96122 4.22113 8.6119V1.32134C4.22113 0.972023 3.93795 0.688843 3.58863 0.688843Z" fill="white"/>
<path d="M8.78309 0.688843H6.68697C6.33765 0.688843 6.05447 0.972023 6.05447 1.32134V8.6119C6.05447 8.96122 6.33765 9.2444 6.68697 9.2444H8.78309C9.13241 9.2444 9.41559 8.96122 9.41559 8.6119V1.32134C9.41559 0.972023 9.13241 0.688843 8.78309 0.688843Z" fill="white"/>
</svg>
