<svg width="11" height="10" viewBox="0 0 11 10" fill="none" xmlns="http://www.w3.org/2000/svg">
<path d="M2.63914 0.500301V9.50056C2.63943 9.59168 2.66456 9.681 2.71183 9.7589C2.7591 9.8368 2.82673 9.90034 2.90742 9.94267C2.98812 9.98499 3.07883 10.0045 3.1698 9.99912C3.26076 9.99373 3.34853 9.96363 3.42366 9.91207L9.92385 5.41194C10.1934 5.22544 10.1934 4.77642 9.92385 4.58942L3.42366 0.0892894C3.34869 0.0372003 3.26087 0.00665413 3.16976 0.00096949C3.07864 -0.00471515 2.98771 0.0146792 2.90684 0.0570455C2.82598 0.0994117 2.75827 0.163129 2.71107 0.241276C2.66387 0.319422 2.639 0.409008 2.63914 0.500301Z" fill="white"/>
</svg>
