<svg width="6" height="4" viewBox="0 0 6 4" fill="none" xmlns="http://www.w3.org/2000/svg">
<path d="M0.750021 0.249974H5.25002C5.29558 0.250117 5.34024 0.262683 5.37919 0.286319C5.41814 0.309955 5.44991 0.343765 5.47107 0.384112C5.49223 0.424459 5.50199 0.469814 5.4993 0.515295C5.4966 0.560776 5.48155 0.60466 5.45577 0.642224L3.20577 3.89222C3.11252 4.02697 2.88802 4.02697 2.79452 3.89222L0.544521 0.642224C0.518478 0.604738 0.503205 0.560832 0.500363 0.515275C0.49752 0.469719 0.507217 0.424255 0.5284 0.383822C0.549582 0.34339 0.58144 0.309536 0.620512 0.285938C0.659584 0.262341 0.704376 0.249902 0.750021 0.249974Z" fill="white"/>
</svg>
