<svg width="6" height="4" viewBox="0 0 6 4" fill="none" xmlns="http://www.w3.org/2000/svg">
<path d="M0.750021 3.75003H5.25002C5.29558 3.74988 5.34024 3.73732 5.37919 3.71368C5.41814 3.69005 5.44991 3.65623 5.47107 3.61589C5.49223 3.57554 5.50199 3.53019 5.4993 3.4847C5.4966 3.43922 5.48155 3.39534 5.45577 3.35778L3.20577 0.107776C3.11252 -0.0269736 2.88802 -0.0269736 2.79452 0.107776L0.544521 3.35778C0.518478 3.39526 0.503205 3.43917 0.500363 3.48472C0.49752 3.53028 0.507217 3.57575 0.5284 3.61618C0.549582 3.65661 0.58144 3.69046 0.620512 3.71406C0.659584 3.73766 0.704376 3.7501 0.750021 3.75003Z" fill="white"/>
</svg>
