<svg width="58" height="58" viewBox="0 0 58 58" fill="none" xmlns="http://www.w3.org/2000/svg">
<g clip-path="url(#clip0_111_75)">
<path d="M28.7146 29.2858C36.6052 29.2858 43.0003 22.8907 43.0003 15.0001C43.0003 7.10945 36.6052 0.714355 28.7146 0.714355C20.824 0.714355 14.4289 7.10945 14.4289 15.0001C14.4289 22.8907 20.824 29.2858 28.7146 29.2858ZM38.7146 32.8572H36.8508C34.3731 33.9956 31.6164 34.6429 28.7146 34.6429C25.8128 34.6429 23.0673 33.9956 20.5784 32.8572H18.7146C10.4333 32.8572 3.7146 39.576 3.7146 47.8572V52.5001C3.7146 55.4577 6.11415 57.8572 9.07174 57.8572H48.3575C51.315 57.8572 53.7146 55.4577 53.7146 52.5001V47.8572C53.7146 39.576 46.9958 32.8572 38.7146 32.8572Z" fill="#262629"/>
</g>
<defs>
<clipPath id="clip0_111_75">
<rect width="57.1429" height="57.1429" fill="white" transform="translate(0.143188 0.714355)"/>
</clipPath>
</defs>
</svg>
