<svg width="10" height="7" viewBox="0 0 10 7" fill="none" xmlns="http://www.w3.org/2000/svg">
<path d="M8.85705 3.06748C9.05455 3.32581 9.05455 3.67456 8.85705 3.93248C8.23496 4.74456 6.74246 6.41665 4.99996 6.41665C3.25746 6.41665 1.76496 4.74456 1.14288 3.93248C1.04679 3.80879 0.994629 3.65661 0.994629 3.49998C0.994629 3.34335 1.04679 3.19117 1.14288 3.06748C1.76496 2.2554 3.25746 0.583313 4.99996 0.583313C6.74246 0.583313 8.23496 2.2554 8.85705 3.06748V3.06748Z" stroke="white" stroke-linecap="round" stroke-linejoin="round"/>
<path d="M5 4.75C5.69036 4.75 6.25 4.19036 6.25 3.5C6.25 2.80964 5.69036 2.25 5 2.25C4.30964 2.25 3.75 2.80964 3.75 3.5C3.75 4.19036 4.30964 4.75 5 4.75Z" stroke="white" stroke-linecap="round" stroke-linejoin="round"/>
</svg>
